<svg width="1024" height="1024" viewBox="0 0 1024 1024" xmlns="http://www.w3.org/2000/svg">
  <!-- Rounded green tile, ~22% corner radius -->
  <rect width="1024" height="1024" rx="225" ry="225" fill="#00BA7C"/>
  <!-- The "D" glyph is the first path of digg.com/digg-logo.svg (viewBox 0..80).
       Centered at ~62% size: scale = 7.9375 → 635px wide, offset = (1024-635)/2 = 194.5 -->
  <g transform="translate(194.5 194.5) scale(7.9375)" fill="#000000">
    <path d="M57 0C58.66 0 60 1.34 60 3V13C60 14.66 61.34 16 63 16H77C78.66 16 80 17.34 80 19V61C80 62.66 78.66 64 77 64H63C61.34 64 60 65.34 60 67V77C60 78.66 58.66 80 57 80H3C1.34 80 0 78.66 0 77V35C0 33.34 1.34 32 3 32H17C18.66 32 20 33.34 20 35V60C20 62.21 21.79 64 24 64H57C58.66 64 60 62.66 60 61V19C60 17.34 58.66 16 57 16H3C1.34 16 0 14.66 0 13V3C0 1.34 1.34 0 3 0H57Z"/>
  </g>
</svg>
